HIERARCHY
ROOT root
{
	OFFSET	0	13.1	24.9
	CHANNELS 6  Xposition Yposition Zposition Xrotation Yrotation Zrotation
	JOINT spine_1
	{
		OFFSET	0	9.99999	0
		CHANNELS 3  Xrotation Yrotation Zrotation
		JOINT spine_2
		{
			OFFSET	0	112	-10
			CHANNELS 3  Xrotation Yrotation Zrotation
			JOINT spine_3
			{
				OFFSET	0	206.5	19.3
				CHANNELS 3  Xrotation Yrotation Zrotation
				JOINT spine_4
				{
					OFFSET	0	110.4	14.6
					CHANNELS 3  Xrotation Yrotation Zrotation
					JOINT neck_1
					{
						OFFSET	0	71.8	-50.3
						CHANNELS 3  Xrotation Yrotation Zrotation
						JOINT neck_2
						{
							OFFSET	0	86.2	-25.8
							CHANNELS 3  Xrotation Yrotation Zrotation
							JOINT head_ee
							{
								OFFSET	0	179.8	-8.7
								CHANNELS 3  Xrotation Yrotation Zrotation
								End Site
								{
									OFFSET	1	0	0
								}
							}
						}
					}
					JOINT left_clavicle
					{
						OFFSET	-43.2	22.4	-70.8
						CHANNELS 3  Xrotation Yrotation Zrotation
						JOINT left_shoulder
						{
							OFFSET	-93.9	-5.79999	48.7
							CHANNELS 3  Xrotation Yrotation Zrotation
							JOINT left_elbow
							{
								OFFSET	-291.4	-30.8	15.2
								CHANNELS 3  Xrotation Yrotation Zrotation
								JOINT left_lowarm_twist
								{
									OFFSET	-110.7	-3.89999	13.6
									CHANNELS 3  Xrotation Yrotation Zrotation
									JOINT left_hand
									{
										OFFSET	-110.7	-3.89999	13.6
										CHANNELS 3  Xrotation Yrotation Zrotation
										JOINT left_ee
										{
											OFFSET	-80.8	-5.10001	12.1
											CHANNELS 3  Xrotation Yrotation Zrotation
											End Site
											{
												OFFSET	1	0	0
											}
										}
									}
								}
							}
						}
					}
					JOINT right_clavicle
					{
						OFFSET	43.2	22.4	-70.8
						CHANNELS 3  Xrotation Yrotation Zrotation
						JOINT right_shoulder
						{
							OFFSET	93.9	-5.79999	48.7
							CHANNELS 3  Xrotation Yrotation Zrotation
							JOINT right_elbow
							{
								OFFSET	291.4	-30.8	15.2
								CHANNELS 3  Xrotation Yrotation Zrotation
								JOINT right_lowarm_twist
								{
									OFFSET	110.7	-3.89999	13.6
									CHANNELS 3  Xrotation Yrotation Zrotation
									JOINT right_hand
									{
										OFFSET	110.7	-3.89999	13.6
										CHANNELS 3  Xrotation Yrotation Zrotation
										JOINT right_ee
										{
											OFFSET	80.8	-5.10001	12.1
											CHANNELS 3  Xrotation Yrotation Zrotation
											End Site
											{
												OFFSET	1	0	0
											}
										}
									}
								}
							}
						}
					}
				}
			}
		}
	}
	JOINT left_hip
	{
		OFFSET	-82.8	-127.5	0.300001
		CHANNELS 3  Xrotation Yrotation Zrotation
		JOINT left_knee
		{
			OFFSET	-28.2	-396.7	2.2
			CHANNELS 3  Xrotation Yrotation Zrotation
			JOINT left_ankle
			{
				OFFSET	-11.7	-411.3	35.4
				CHANNELS 3  Xrotation Yrotation Zrotation
				JOINT left_toes
				{
					OFFSET	0	-60	-88.6
					CHANNELS 3  Xrotation Yrotation Zrotation
					JOINT left_foot_ee
					{
						OFFSET	-22.5	-16.5	-42.2
						CHANNELS 3  Xrotation Yrotation Zrotation
						End Site
						{
							OFFSET	1	0	0
						}
					}
				}
			}
		}
	}
	JOINT right_hip
	{
		OFFSET	82.8	-127.5	0.300001
		CHANNELS 3  Xrotation Yrotation Zrotation
		JOINT right_knee
		{
			OFFSET	28.2	-396.7	2.2
			CHANNELS 3  Xrotation Yrotation Zrotation
			JOINT right_ankle
			{
				OFFSET	11.7	-411.3	35.4
				CHANNELS 3  Xrotation Yrotation Zrotation
				JOINT right_toes
				{
					OFFSET	0	-60	-88.6
					CHANNELS 3  Xrotation Yrotation Zrotation
					JOINT right_foot_ee
					{
						OFFSET	22.5	-16.5	-42.2
						CHANNELS 3  Xrotation Yrotation Zrotation
						End Site
						{
							OFFSET	1	0	0
						}
					}
				}
			}
		}
	}
}
MOTION
Frames: 11
Frame Time: 0.02
3444.94920868 731.224 -1559.58473377 15.1253863273 67.6043049832 -12.2333661075 -1.23798 0.223196 -1.06421 -1.2374 0.290459 -1.04786 -1.24249 0.525039 -0.952218 -1.24356 0.368073 -1.02318 -15.6072 3.1613 11.0662 -15.2631 -0.422685 11.4961 -0.0 0.0 -0.0 2.89166 24.0811 6.69739 -21.4155 -21.6773 61.5893 1.51917 -36.9609 0.507757 -82.6716 -8.15968 5.2358 -2.55053 13.6645 -10.4077 -0.0 0.0 -0.0 9.30348 9.9613 -18.3176 12.0905 -14.1648 -62.1588 0.194738 5.51028 -0.00937145 83.1885 4.21096 8.77919 -3.95002 -10.5317 21.4066 0.0 0.0 0.0 23.7533 31.6566 -27.5309 -35.73 -0.217694 5.3913 29.7635 -11.3354 -4.04898 -19.6625 0.0 0.0 -0.0 0.0 -0.0 -6.11655 21.1377 -6.80499 -17.5497 -0.316758 -2.66403 40.5131 1.94021 4.93675 -29.2282 0.0 0.0 0.0 0.0 0.0 
3447.4772827 731.224 -1563.32208866 14.1410646471 65.9883008208 -11.1625264375 -1.23798 0.223196 -1.06421 -1.2374 0.290459 -1.04786 -1.24249 0.525039 -0.952218 -1.24356 0.368073 -1.02318 -15.6072 3.1613 11.0662 -15.2631 -0.422685 11.4961 -0.0 0.0 -0.0 2.89166 24.0811 6.69739 -21.4155 -21.6773 61.5893 1.51917 -36.9609 0.507757 -82.6716 -8.15968 5.2358 -2.55053 13.6645 -10.4077 -0.0 0.0 -0.0 9.30348 9.9613 -18.3176 12.0905 -14.1648 -62.1588 0.194738 5.51028 -0.00937145 83.1885 4.21096 8.77919 -3.95002 -10.5317 21.4066 0.0 0.0 0.0 23.7533 31.6566 -27.5309 -35.73 -0.217694 5.3913 29.7635 -11.3354 -4.04898 -19.6625 0.0 0.0 -0.0 0.0 -0.0 -6.11655 21.1377 -6.80499 -17.5497 -0.316758 -2.66403 40.5131 1.94021 4.93675 -29.2282 0.0 0.0 0.0 0.0 0.0 
3446.50192684 731.224 -1561.90785388 14.4992909411 66.6044145219 -11.553752301 -1.23798 0.223196 -1.06421 -1.2374 0.290459 -1.04786 -1.24249 0.525039 -0.952218 -1.24356 0.368073 -1.02318 -15.6072 3.1613 11.0662 -15.2631 -0.422685 11.4961 -0.0 0.0 -0.0 2.89166 24.0811 6.69739 -21.4155 -21.6773 61.5893 1.51917 -36.9609 0.507757 -82.6716 -8.15968 5.2358 -2.55053 13.6645 -10.4077 -0.0 0.0 -0.0 9.30348 9.9613 -18.3176 12.0905 -14.1648 -62.1588 0.194738 5.51028 -0.00937145 83.1885 4.21096 8.77919 -3.95002 -10.5317 21.4066 0.0 0.0 0.0 23.7533 31.6566 -27.5309 -35.73 -0.217694 5.3913 29.7635 -11.3354 -4.04898 -19.6625 0.0 0.0 -0.0 0.0 -0.0 -6.11655 21.1377 -6.80499 -17.5497 -0.316758 -2.66403 40.5131 1.94021 4.93675 -29.2282 0.0 0.0 0.0 0.0 0.0 
3444.7691857 731.224 -1559.30941831 15.2028992982 67.7218185576 -12.3171670482 -1.23798 0.223196 -1.06421 -1.2374 0.290459 -1.04786 -1.24249 0.525039 -0.952218 -1.24356 0.368073 -1.02318 -15.6072 3.1613 11.0662 -15.2631 -0.422685 11.4961 -0.0 0.0 -0.0 2.89166 24.0811 6.69739 -21.4155 -21.6773 61.5893 1.51917 -36.9609 0.507757 -82.6716 -8.15968 5.2358 -2.55053 13.6645 -10.4077 -0.0 0.0 -0.0 9.30348 9.9613 -18.3176 12.0905 -14.1648 -62.1588 0.194738 5.51028 -0.00937145 83.1885 4.21096 8.77919 -3.95002 -10.5317 21.4066 0.0 0.0 0.0 23.7533 31.6566 -27.5309 -35.73 -0.217694 5.3913 29.7635 -11.3354 -4.04898 -19.6625 0.0 0.0 -0.0 0.0 -0.0 -6.11655 21.1377 -6.80499 -17.5497 -0.316758 -2.66403 40.5131 1.94021 4.93675 -29.2282 0.0 0.0 0.0 0.0 0.0 
3437.39825349 734.902 -1552.966311 18.1071277086 70.4594344299 -15.1684220925 -1.18329 0.193332 -0.92316 -1.18285 0.251681 -0.908989 -1.18668 0.454363 -0.82654 -1.1875 0.31813 -0.887919 -16.7099 3.01749 10.3065 -16.4111 -0.0419487 10.7424 -0.0 0.0 -0.0 3.48379 23.5236 7.5016 -23.409 -21.1927 61.1983 1.27523 -32.2797 0.369052 -83.2114 -8.22763 5.225 -2.54827 13.3863 -10.5371 -0.0 0.0 -0.0 10.0264 11.6226 -19.8627 16.3329 -12.5102 -64.0012 0.253243 7.15052 -0.0158229 83.1772 4.20962 8.77863 -4.09606 -10.7907 22.2632 0.0 0.0 0.0 26.0068 30.7894 -27.5783 -32.9662 -0.0809293 4.98941 23.867 -7.63374 -3.30157 -19.4202 0.0 0.0 -0.0 0.0 -0.0 -7.14869 20.7087 -6.68214 -15.2817 -0.321989 -2.31611 39.8964 1.45677 4.87931 -30.1625 0.0 0.0 0.0 0.0 0.0 
3422.42078031 738.39 -1543.71585389 24.4832753095 75.9593520144 -21.679580988 -1.05472 -0.0475774 -1.04005 -1.05412 0.0186965 -1.04097 -1.05404 0.255703 -1.00925 -1.05545 0.09311 -1.03697 -18.6538 2.98249 11.695 -18.2705 -0.483854 12.0624 -0.0 0.0 -0.0 3.44635 23.3557 7.44842 -25.3428 -20.7846 61.514 1.1319 -29.2788 0.295677 -83.2285 -8.22978 5.22465 -2.4894 12.9972 -10.3612 -0.0 0.0 -0.0 10.3913 12.4656 -20.6489 16.819 -12.7237 -64.2426 0.449156 12.5441 -0.0493658 83.3312 4.22784 8.78629 -3.8134 -12.3476 19.3937 0.0 0.0 0.0 25.7294 29.7357 -25.0804 -24.9997 0.202892 3.80072 16.6989 -7.84794 -2.39756 -20.4102 0.0 0.0 -0.0 0.0 -0.0 -8.62837 20.9775 -6.71936 -12.1057 -0.306168 -1.82912 39.7247 2.99289 4.88091 -32.801 0.0 0.0 0.0 0.0 0.0 
3415.41604281 737.843 -1538.29827909 31.0544040062 78.4625596347 -28.405125097 -1.0957 -0.189157 -0.854833 -1.0953 -0.134381 -0.865136 -1.09291 0.067114 -0.872934 -1.09396 -0.0715865 -0.872578 -19.2259 3.02029 11.9997 -18.8226 -0.448859 12.3746 -0.0 0.0 -0.0 3.68735 23.0719 7.78258 -26.7799 -20.3536 61.7256 0.978046 -25.8495 0.224452 -83.0358 -8.20554 5.22858 -2.35298 12.4217 -9.78039 -0.0 0.0 -0.0 10.5982 12.8245 -21.0996 19.2644 -11.8384 -64.667 0.447448 12.4979 -0.0489954 83.1364 4.2048 8.77659 -3.88844 -13.4055 19.2658 0.0 0.0 0.0 26.5803 28.7941 -23.9597 -19.3094 0.303216 2.93367 12.1082 -6.1294 -1.75939 -20.9349 0.0 0.0 -0.0 0.0 -0.0 -9.96598 20.419 -6.59359 -9.38997 -0.271255 -1.41393 38.9745 3.33681 4.81956 -34.8221 0.0 0.0 0.0 0.0 0.0 
3401.659101 736.069 -1531.0511782 36.5015922655 80.363322424 -34.0259791735 -1.0636 -0.216127 -0.761904 -1.0633 -0.167209 -0.774111 -1.06073 0.0138825 -0.791841 -1.06159 -0.111344 -0.784097 -20.364 2.7155 10.1803 -20.0729 0.126405 10.5933 -0.0 0.0 -0.0 3.87959 23.7862 8.04853 -28.1898 -19.987 61.8126 0.811986 -21.9115 0.157186 -83.3556 -8.24577 5.222 -2.05018 11.3079 -8.38989 -0.0 0.0 -0.0 10.7345 11.3873 -21.4331 19.6084 -9.72589 -66.6143 0.601987 16.6051 -0.0878483 83.9552 4.30187 8.81682 -3.62966 -15.0087 16.6054 0.0 0.0 0.0 26.3438 28.2353 -22.6276 -13.517 0.316531 2.04541 10.6622 -5.19404 -1.55198 -21.4117 0.0 0.0 -0.0 0.0 -0.0 -11.6777 21.6439 -6.22646 -6.74579 -0.218391 -1.01165 39.3956 3.86807 4.86328 -36.87 0.0 0.0 0.0 0.0 0.0 
3380.35087837 740.41 -1517.21395761 55.6560856332 83.1756557348 -53.4202011207 -1.03019 -0.230148 -0.673138 -1.02996 -0.186849 -0.686418 -1.02747 -0.025669 -0.71093 -1.02815 -0.137622 -0.697955 -21.6357 2.70133 10.1429 -21.3468 0.349493 10.5987 -0.0 0.0 -0.0 4.53949 23.7213 8.96257 -30.4021 -19.7142 61.7426 0.543816 -15.0772 0.0719681 -84.1048 -8.33984 5.2057 -1.87911 10.5259 -7.66723 -0.0 0.0 -0.0 11.2454 11.3073 -22.5737 20.6711 -7.86633 -67.7525 0.849293 22.817 -0.171382 85.034 4.4306 8.8677 -3.06627 -18.5244 11.0337 0.0 0.0 0.0 26.8211 27.7857 -20.5262 -8.81055 0.261261 1.32558 4.60009 -3.3504 -0.678864 -20.6406 0.0 0.0 -0.0 0.0 -0.0 -13.6103 21.6052 -5.55322 -5.25599 -0.180442 -0.786174 39.6066 2.9207 4.86983 -37.7785 0.0 0.0 0.0 0.0 0.0 
3367.24386889 737.736 -1511.24872562 68.6649627985 83.5572335392 -66.8182020842 -1.09819 -0.169879 -0.48215 -1.09807 -0.138854 -0.491983 -1.09675 -0.0225812 -0.510703 -1.09709 -0.102953 -0.500728 -21.7743 2.92939 9.77599 -21.5065 0.990546 10.3643 -0.0 0.0 -0.0 5.11431 23.9612 9.75259 -31.4347 -19.434 61.3297 0.336686 -9.46907 0.027885 -84.7246 -8.41749 5.19126 -1.59529 10.0527 -6.06272 -0.0 0.0 -0.0 11.3227 11.1367 -22.7487 20.6392 -6.75269 -68.4055 0.962145 25.4829 -0.217565 85.4265 4.47766 8.88561 -2.56143 -21.5955 6.33988 0.0 0.0 0.0 27.2643 27.6444 -19.8686 -8.05939 0.246974 1.2112 4.10847 -2.97344 -0.606412 -19.7293 0.0 0.0 -0.0 0.0 -0.0 -14.8438 21.932 -5.03669 -6.05234 -0.201457 -0.90658 39.2899 1.48622 4.82696 -38.0646 0.0 0.0 0.0 0.0 0.0 
3354.06042702 733.198 -1504.07823545 81.5011250104 83.8413767297 -79.8438612652 -1.09287 0.00314865 -0.459249 -1.09275 0.0323651 -0.458118 -1.09294 0.136321 -0.438562 -1.0932 0.065348 -0.454587 -21.5018 2.83422 8.98844 -21.2758 1.13884 9.58108 -0.0 0.0 -0.0 5.15001 23.6077 9.81719 -32.0697 -19.0486 61.0288 0.274766 -7.75112 0.0186139 -84.679 -8.41178 5.19236 -1.08454 7.19837 -4.05505 -0.0 0.0 -0.0 11.2479 11.8412 -22.572 20.5792 -5.39493 -69.1689 1.15318 29.7362 -0.306159 85.2475 4.45619 8.87748 -1.82567 -24.7778 0.514369 0.0 0.0 0.0 29.5896 27.065 -20.1438 -6.4891 0.21227 0.972733 4.08337 -3.65661 -0.604222 -20.2419 0.0 0.0 -0.0 0.0 -0.0 -15.9655 22.4887 -4.71999 -6.22074 -0.205686 -0.932077 40.3566 -0.0829657 4.90584 -37.3252 0.0 0.0 0.0 0.0 0.0 
